<?xml version="1.0" encoding="UTF-8" standalone="no"?>
<!DOCTYPE svg PUBLIC "-//W3C//DTD SVG 1.1//EN"
 "http://www.w3.org/Graphics/SVG/1.1/DTD/svg11.dtd">
<!-- Generated by graphviz version 2.34.0 (20130907.0228)
 -->
<!-- Title: %3 Pages: 1 -->
<svg width="2106pt" height="490pt"
 viewBox="0.00 0.00 2105.65 490.00" xmlns="http://www.w3.org/2000/svg" xmlns:xlink="http://www.w3.org/1999/xlink">
<g id="graph0" class="graph" transform="scale(1 1) rotate(0) translate(4 486)">
<title>%3</title>
<polygon fill="white" stroke="white" points="-4,4 -4,-486 2101.65,-486 2101.65,4 -4,4"/>
<!-- org_liveSense_service_dataSourceProvider -->
<g id="node1" class="node"><title>org_liveSense_service_dataSourceProvider</title>
<polygon fill="yellow" stroke="black" points="909,-445 909,-481 1131,-481 1131,-445 909,-445"/>
<text text-anchor="middle" x="1020" y="-470.1" font-family="Arial" font-size="8.00">liveSense :: Service :: JDBC DataSource pooler</text>
<polyline fill="none" stroke="black" points="909,-463 1131,-463 "/>
<text text-anchor="middle" x="1020" y="-452.1" font-family="Arial" font-size="8.00">org.liveSense.service.dataSourceProvider(2&#45;SNAPSHOT)</text>
</g>
<!-- org_apache_felix_configadmin -->
<g id="node2" class="node"><title>org_apache_felix_configadmin</title>
<polygon fill="green" stroke="black" points="772,-371 772,-407 938,-407 938,-371 772,-371"/>
<text text-anchor="middle" x="855" y="-396.1" font-family="Arial" font-size="8.00">Apache Felix Configuration Admin Service</text>
<polyline fill="none" stroke="black" points="772,-389 938,-389 "/>
<text text-anchor="middle" x="855" y="-378.1" font-family="Arial" font-size="8.00">org.apache.felix.configadmin(1.6.0)</text>
</g>
<!-- org_liveSense_service_dataSourceProvider&#45;&gt;org_apache_felix_configadmin -->
<g id="edge1" class="edge"><title>org_liveSense_service_dataSourceProvider&#45;&gt;org_apache_felix_configadmin</title>
<path fill="none" stroke="yellow" d="M980.897,-444.937C957.659,-434.797 927.999,-421.854 903.305,-411.078"/>
<polygon fill="yellow" stroke="yellow" points="904.673,-407.857 894.108,-407.065 901.873,-414.273 904.673,-407.857"/>
</g>
<!-- org_liveSense_misc_queryBuilder -->
<g id="node3" class="node"><title>org_liveSense_misc_queryBuilder</title>
<polygon fill="green" stroke="black" points="262.5,-371 262.5,-407 449.5,-407 449.5,-371 262.5,-371"/>
<text text-anchor="middle" x="356" y="-396.1" font-family="Arial" font-size="8.00">liveSense :: Misc :: SQL QueryBuilder</text>
<polyline fill="none" stroke="black" points="262.5,-389 449.5,-389 "/>
<text text-anchor="middle" x="356" y="-378.1" font-family="Arial" font-size="8.00">org.liveSense.misc.queryBuilder(2&#45;SNAPSHOT)</text>
</g>
<!-- org_liveSense_service_dataSourceProvider&#45;&gt;org_liveSense_misc_queryBuilder -->
<g id="edge2" class="edge"><title>org_liveSense_service_dataSourceProvider&#45;&gt;org_liveSense_misc_queryBuilder</title>
<path fill="none" stroke="yellow" d="M908.802,-453.917C797.539,-445.232 621.293,-429.857 459.739,-408.185"/>
<polygon fill="yellow" stroke="yellow" points="459.99,-404.687 449.611,-406.815 459.052,-411.624 459.99,-404.687"/>
</g>
<!-- org_apache_commons_lang -->
<g id="node4" class="node"><title>org_apache_commons_lang</title>
<polygon fill="green" stroke="black" points="956.5,-371 956.5,-407 1083.5,-407 1083.5,-371 956.5,-371"/>
<text text-anchor="middle" x="1020" y="-396.1" font-family="Arial" font-size="8.00">Commons Lang</text>
<polyline fill="none" stroke="black" points="956.5,-389 1083.5,-389 "/>
<text text-anchor="middle" x="1020" y="-378.1" font-family="Arial" font-size="8.00">org.apache.commons.lang(2.6)</text>
</g>
<!-- org_liveSense_service_dataSourceProvider&#45;&gt;org_apache_commons_lang -->
<g id="edge3" class="edge"><title>org_liveSense_service_dataSourceProvider&#45;&gt;org_apache_commons_lang</title>
<path fill="none" stroke="yellow" d="M1020,-444.937C1020,-436.807 1020,-426.876 1020,-417.705"/>
<polygon fill="yellow" stroke="yellow" points="1023.5,-417.441 1020,-407.441 1016.5,-417.441 1023.5,-417.441"/>
</g>
<!-- org_apache_commons_beanutils -->
<g id="node5" class="node"><title>org_apache_commons_beanutils</title>
<polygon fill="green" stroke="black" points="1101.5,-371 1101.5,-407 1252.5,-407 1252.5,-371 1101.5,-371"/>
<text text-anchor="middle" x="1177" y="-396.1" font-family="Arial" font-size="8.00">Commons BeanUtils</text>
<polyline fill="none" stroke="black" points="1101.5,-389 1252.5,-389 "/>
<text text-anchor="middle" x="1177" y="-378.1" font-family="Arial" font-size="8.00">org.apache.commons.beanutils(1.8.3)</text>
</g>
<!-- org_liveSense_service_dataSourceProvider&#45;&gt;org_apache_commons_beanutils -->
<g id="edge4" class="edge"><title>org_liveSense_service_dataSourceProvider&#45;&gt;org_apache_commons_beanutils</title>
<path fill="none" stroke="yellow" d="M1057.21,-444.937C1079.12,-434.886 1107.04,-422.082 1130.42,-411.364"/>
<polygon fill="yellow" stroke="yellow" points="1132.16,-414.415 1139.79,-407.065 1129.24,-408.052 1132.16,-414.415"/>
</g>
<!-- org_apache_commons_dbcp -->
<g id="node6" class="node"><title>org_apache_commons_dbcp</title>
<polygon fill="green" stroke="black" points="467.5,-371 467.5,-407 596.5,-407 596.5,-371 467.5,-371"/>
<text text-anchor="middle" x="532" y="-396.1" font-family="Arial" font-size="8.00">Commons DBCP</text>
<polyline fill="none" stroke="black" points="467.5,-389 596.5,-389 "/>
<text text-anchor="middle" x="532" y="-378.1" font-family="Arial" font-size="8.00">org.apache.commons.dbcp(1.4)</text>
</g>
<!-- org_liveSense_service_dataSourceProvider&#45;&gt;org_apache_commons_dbcp -->
<g id="edge5" class="edge"><title>org_liveSense_service_dataSourceProvider&#45;&gt;org_apache_commons_dbcp</title>
<path fill="none" stroke="yellow" d="M908.935,-450.978C827.589,-442.101 714.392,-428.084 606.85,-408.252"/>
<polygon fill="yellow" stroke="yellow" points="607.268,-404.77 596.796,-406.378 605.985,-411.651 607.268,-404.77"/>
</g>
<!-- org_apache_commons_dbutils -->
<g id="node7" class="node"><title>org_apache_commons_dbutils</title>
<polygon fill="green" stroke="black" points="1716.5,-371 1716.5,-407 1851.5,-407 1851.5,-371 1716.5,-371"/>
<text text-anchor="middle" x="1784" y="-396.1" font-family="Arial" font-size="8.00">Commons DbUtils</text>
<polyline fill="none" stroke="black" points="1716.5,-389 1851.5,-389 "/>
<text text-anchor="middle" x="1784" y="-378.1" font-family="Arial" font-size="8.00">org.apache.commons.dbutils(1.3)</text>
</g>
<!-- org_liveSense_service_dataSourceProvider&#45;&gt;org_apache_commons_dbutils -->
<g id="edge6" class="edge"><title>org_liveSense_service_dataSourceProvider&#45;&gt;org_apache_commons_dbutils</title>
<path fill="none" stroke="yellow" d="M1131.26,-458.427C1265.49,-452.946 1498.02,-439.72 1706.2,-407.988"/>
<polygon fill="yellow" stroke="yellow" points="1706.74,-411.445 1716.09,-406.462 1705.67,-404.527 1706.74,-411.445"/>
</g>
<!-- org_ops4j_pax_logging_pax_logging_api -->
<g id="node8" class="node"><title>org_ops4j_pax_logging_pax_logging_api</title>
<polygon fill="green" stroke="black" points="1525.5,-371 1525.5,-407 1698.5,-407 1698.5,-371 1525.5,-371"/>
<text text-anchor="middle" x="1612" y="-396.1" font-family="Arial" font-size="8.00">OPS4J Pax Logging &#45; API</text>
<polyline fill="none" stroke="black" points="1525.5,-389 1698.5,-389 "/>
<text text-anchor="middle" x="1612" y="-378.1" font-family="Arial" font-size="8.00">org.ops4j.pax.logging.pax&#45;logging&#45;api(1.7.0)</text>
</g>
<!-- org_liveSense_service_dataSourceProvider&#45;&gt;org_ops4j_pax_logging_pax_logging_api -->
<g id="edge7" class="edge"><title>org_liveSense_service_dataSourceProvider&#45;&gt;org_ops4j_pax_logging_pax_logging_api</title>
<path fill="none" stroke="yellow" d="M1131.12,-452.367C1229.49,-443.268 1377.14,-428.219 1515.5,-408.01"/>
<polygon fill="yellow" stroke="yellow" points="1516.06,-411.465 1525.44,-406.546 1515.04,-404.54 1516.06,-411.465"/>
</g>
<!-- org_liveSense_core -->
<g id="node9" class="node"><title>org_liveSense_core</title>
<polygon fill="green" stroke="black" points="614.5,-371 614.5,-407 753.5,-407 753.5,-371 614.5,-371"/>
<text text-anchor="middle" x="684" y="-396.1" font-family="Arial" font-size="8.00">liveSense :: Core</text>
<polyline fill="none" stroke="black" points="614.5,-389 753.5,-389 "/>
<text text-anchor="middle" x="684" y="-378.1" font-family="Arial" font-size="8.00">org.liveSense.core(2&#45;SNAPSHOT)</text>
</g>
<!-- org_liveSense_service_dataSourceProvider&#45;&gt;org_liveSense_core -->
<g id="edge8" class="edge"><title>org_liveSense_service_dataSourceProvider&#45;&gt;org_liveSense_core</title>
<path fill="none" stroke="yellow" d="M937.169,-444.967C889.231,-435.021 827.496,-422.065 763.624,-408.12"/>
<polygon fill="yellow" stroke="yellow" points="764.29,-404.683 753.773,-405.965 762.794,-411.521 764.29,-404.683"/>
</g>
<!-- org_apache_servicemix_specs_java_persistence_api_1_1_1 -->
<g id="node10" class="node"><title>org_apache_servicemix_specs_java_persistence_api_1_1_1</title>
<polygon fill="green" stroke="black" points="1270.5,-371 1270.5,-407 1507.5,-407 1507.5,-371 1270.5,-371"/>
<text text-anchor="middle" x="1389" y="-396.1" font-family="Arial" font-size="8.00">Apache ServiceMix :: Specs :: Java Persistence API 1.4</text>
<polyline fill="none" stroke="black" points="1270.5,-389 1507.5,-389 "/>
<text text-anchor="middle" x="1389" y="-378.1" font-family="Arial" font-size="8.00">org.apache.servicemix.specs.java&#45;persistence&#45;api&#45;1.1.1(2.2.0)</text>
</g>
<!-- org_liveSense_service_dataSourceProvider&#45;&gt;org_apache_servicemix_specs_java_persistence_api_1_1_1 -->
<g id="edge9" class="edge"><title>org_liveSense_service_dataSourceProvider&#45;&gt;org_apache_servicemix_specs_java_persistence_api_1_1_1</title>
<path fill="none" stroke="yellow" d="M1107.45,-444.937C1162.84,-434.129 1234.54,-420.138 1291.72,-408.981"/>
<polygon fill="yellow" stroke="yellow" points="1292.72,-412.353 1301.86,-407.003 1291.38,-405.483 1292.72,-412.353"/>
</g>
<!-- org_apache_felix_configadmin&#45;&gt;org_ops4j_pax_logging_pax_logging_api -->
<g id="edge10" class="edge"><title>org_apache_felix_configadmin&#45;&gt;org_ops4j_pax_logging_pax_logging_api</title>
<path fill="none" stroke="green" d="M894.404,-407.091C912.717,-414.537 935.039,-422.281 956,-426 1076.56,-447.388 1386.31,-446.643 1507,-426 1525.16,-422.895 1544.34,-416.974 1561.28,-410.765"/>
<polygon fill="green" stroke="green" points="1562.86,-413.91 1570.97,-407.094 1560.38,-407.365 1562.86,-413.91"/>
</g>
<!-- org_liveSense_misc_queryBuilder&#45;&gt;org_apache_commons_beanutils -->
<g id="edge12" class="edge"><title>org_liveSense_misc_queryBuilder&#45;&gt;org_apache_commons_beanutils</title>
<path fill="none" stroke="green" d="M399.205,-407.001C419.415,-414.48 444.042,-422.274 467,-426 602.121,-447.927 948.51,-451.516 1083,-426 1099.11,-422.943 1116,-417.182 1130.94,-411.101"/>
<polygon fill="green" stroke="green" points="1132.6,-414.198 1140.45,-407.083 1129.88,-407.75 1132.6,-414.198"/>
</g>
<!-- org_liveSense_misc_queryBuilder&#45;&gt;org_liveSense_core -->
<g id="edge11" class="edge"><title>org_liveSense_misc_queryBuilder&#45;&gt;org_liveSense_core</title>
<path fill="none" stroke="green" d="M399.205,-407.001C419.415,-414.48 444.042,-422.274 467,-426 523.593,-435.184 539.798,-437.335 596,-426 611.048,-422.965 626.727,-417.283 640.61,-411.266"/>
<polygon fill="green" stroke="green" points="642.227,-414.376 649.905,-407.075 639.35,-407.995 642.227,-414.376"/>
</g>
<!-- org_liveSense_misc_queryBuilder&#45;&gt;org_apache_servicemix_specs_java_persistence_api_1_1_1 -->
<g id="edge13" class="edge"><title>org_liveSense_misc_queryBuilder&#45;&gt;org_apache_servicemix_specs_java_persistence_api_1_1_1</title>
<path fill="none" stroke="green" d="M399.205,-407.001C419.415,-414.48 444.042,-422.274 467,-426 553.096,-439.971 1165.54,-437.47 1252,-426 1276.47,-422.754 1302.77,-416.382 1325.72,-409.827"/>
<polygon fill="green" stroke="green" points="1326.72,-413.182 1335.33,-407.016 1324.75,-406.463 1326.72,-413.182"/>
</g>
<!-- org_apache_commons_beanutils&#45;&gt;org_ops4j_pax_logging_pax_logging_api -->
<g id="edge34" class="edge"><title>org_apache_commons_beanutils&#45;&gt;org_ops4j_pax_logging_pax_logging_api</title>
<path fill="none" stroke="#9ecae1" d="M1213.14,-407.082C1229.97,-414.527 1250.54,-422.272 1270,-426 1373.45,-445.823 1403.17,-443.758 1507,-426 1525.16,-422.895 1544.34,-416.974 1561.28,-410.765"/>
<polygon fill="#9ecae1" stroke="#9ecae1" points="1562.86,-413.91 1570.97,-407.094 1560.38,-407.365 1562.86,-413.91"/>
</g>
<!-- org_apache_commons_collections -->
<g id="node22" class="node"><title>org_apache_commons_collections</title>
<polygon fill="#deebf7" stroke="black" points="1231,-297 1231,-333 1387,-333 1387,-297 1231,-297"/>
<text text-anchor="middle" x="1309" y="-322.1" font-family="Arial" font-size="8.00">Commons Collections</text>
<polyline fill="none" stroke="black" points="1231,-315 1387,-315 "/>
<text text-anchor="middle" x="1309" y="-304.1" font-family="Arial" font-size="8.00">org.apache.commons.collections(3.2.1)</text>
</g>
<!-- org_apache_commons_beanutils&#45;&gt;org_apache_commons_collections -->
<g id="edge35" class="edge"><title>org_apache_commons_beanutils&#45;&gt;org_apache_commons_collections</title>
<path fill="none" stroke="#9ecae1" d="M1208.28,-370.937C1226.32,-361.101 1249.18,-348.627 1268.57,-338.053"/>
<polygon fill="#9ecae1" stroke="#9ecae1" points="1270.38,-341.051 1277.48,-333.19 1267.03,-334.906 1270.38,-341.051"/>
</g>
<!-- org_apache_commons_pool -->
<g id="node11" class="node"><title>org_apache_commons_pool</title>
<polygon fill="#3182bd" stroke="black" points="64,-297 64,-333 198,-333 198,-297 64,-297"/>
<text text-anchor="middle" x="131" y="-322.1" font-family="Arial" font-size="8.00">Commons Pool</text>
<polyline fill="none" stroke="black" points="64,-315 198,-315 "/>
<text text-anchor="middle" x="131" y="-304.1" font-family="Arial" font-size="8.00">org.apache.commons.pool(1.5.6)</text>
</g>
<!-- org_apache_commons_dbcp&#45;&gt;org_apache_commons_pool -->
<g id="edge14" class="edge"><title>org_apache_commons_dbcp&#45;&gt;org_apache_commons_pool</title>
<path fill="none" stroke="green" d="M467.105,-371.841C464.033,-371.194 460.986,-370.576 458,-370 350.476,-349.262 319.465,-354.67 208.02,-334.097"/>
<polygon fill="green" stroke="green" points="208.54,-330.633 198.067,-332.23 207.25,-337.513 208.54,-330.633"/>
</g>
<!-- org_apache_geronimo_specs_geronimo_jta_1_1_spec -->
<g id="node30" class="node"><title>org_apache_geronimo_specs_geronimo_jta_1_1_spec</title>
<polygon fill="#bdbdbd" stroke="black" points="0,-149 0,-185 222,-185 222,-149 0,-149"/>
<text text-anchor="middle" x="111" y="-174.1" font-family="Arial" font-size="8.00">geronimo&#45;jta_1.1_spec</text>
<polyline fill="none" stroke="black" points="0,-167 222,-167 "/>
<text text-anchor="middle" x="111" y="-156.1" font-family="Arial" font-size="8.00">org.apache.geronimo.specs.geronimo&#45;jta_1.1_spec(1.1.1)</text>
</g>
<!-- org_apache_commons_dbcp&#45;&gt;org_apache_geronimo_specs_geronimo_jta_1_1_spec -->
<g id="edge15" class="edge"><title>org_apache_commons_dbcp&#45;&gt;org_apache_geronimo_specs_geronimo_jta_1_1_spec</title>
<path fill="none" stroke="green" d="M467.141,-371.643C464.059,-371.048 461,-370.496 458,-370 413.646,-362.667 85.3416,-367.173 55,-334 18.227,-293.796 60.3398,-228.574 88.9425,-193.034"/>
<polygon fill="green" stroke="green" points="91.8386,-195.024 95.5136,-185.086 86.4439,-190.563 91.8386,-195.024"/>
</g>
<!-- org_apache_felix_eventadmin -->
<g id="node12" class="node"><title>org_apache_felix_eventadmin</title>
<polygon fill="#9ecae1" stroke="black" points="1160,-75 1160,-111 1300,-111 1300,-75 1160,-75"/>
<text text-anchor="middle" x="1230" y="-100.1" font-family="Arial" font-size="8.00">Apache Felix EventAdmin</text>
<polyline fill="none" stroke="black" points="1160,-93 1300,-93 "/>
<text text-anchor="middle" x="1230" y="-82.1" font-family="Arial" font-size="8.00">org.apache.felix.eventadmin(1.3.2)</text>
</g>
<!-- org_ops4j_pax_logging_pax_logging_api&#45;&gt;org_apache_felix_eventadmin -->
<g id="edge16" class="edge"><title>org_ops4j_pax_logging_pax_logging_api&#45;&gt;org_apache_felix_eventadmin</title>
<path fill="none" stroke="#3182bd" d="M1545.78,-370.922C1524.46,-362.5 1502.23,-350.513 1486,-334 1422.67,-269.571 1471.85,-207.656 1404,-148 1395.57,-140.587 1344.76,-125.885 1300.15,-113.69"/>
<polygon fill="#3182bd" stroke="#3182bd" points="1301.02,-110.299 1290.45,-111.05 1299.18,-117.053 1301.02,-110.299"/>
</g>
<!-- org_liveSense_core&#45;&gt;org_apache_commons_lang -->
<g id="edge21" class="edge"><title>org_liveSense_core&#45;&gt;org_apache_commons_lang</title>
<path fill="none" stroke="#3182bd" d="M718.095,-407.075C734.003,-414.519 753.479,-422.265 772,-426 844.322,-440.586 865.873,-441.519 938,-426 952.007,-422.986 966.504,-417.381 979.343,-411.429"/>
<polygon fill="#3182bd" stroke="#3182bd" points="980.888,-414.57 988.367,-407.066 977.841,-408.268 980.888,-414.57"/>
</g>
<!-- org_liveSense_core&#45;&gt;org_apache_commons_beanutils -->
<g id="edge22" class="edge"><title>org_liveSense_core&#45;&gt;org_apache_commons_beanutils</title>
<path fill="none" stroke="#3182bd" d="M718.095,-407.075C734.003,-414.519 753.479,-422.265 772,-426 839.747,-439.663 1015.1,-438.882 1083,-426 1099.11,-422.943 1116,-417.182 1130.94,-411.101"/>
<polygon fill="#3182bd" stroke="#3182bd" points="1132.6,-414.198 1140.45,-407.083 1129.88,-407.75 1132.6,-414.198"/>
</g>
<!-- org_liveSense_core&#45;&gt;org_ops4j_pax_logging_pax_logging_api -->
<g id="edge24" class="edge"><title>org_liveSense_core&#45;&gt;org_ops4j_pax_logging_pax_logging_api</title>
<path fill="none" stroke="#3182bd" d="M718.095,-407.075C734.003,-414.519 753.479,-422.265 772,-426 852.055,-442.145 1426.5,-439.768 1507,-426 1525.16,-422.895 1544.34,-416.974 1561.28,-410.765"/>
<polygon fill="#3182bd" stroke="#3182bd" points="1562.86,-413.91 1570.97,-407.094 1560.38,-407.365 1562.86,-413.91"/>
</g>
<!-- javax_jcr -->
<g id="node13" class="node"><title>javax_jcr</title>
<polygon fill="#9ecae1" stroke="black" points="278,-149 278,-185 464,-185 464,-149 278,-149"/>
<text text-anchor="middle" x="371" y="-174.1" font-family="Arial" font-size="8.00">Content Repository for JavaTM Technology API</text>
<polyline fill="none" stroke="black" points="278,-167 464,-167 "/>
<text text-anchor="middle" x="371" y="-156.1" font-family="Arial" font-size="8.00">javax.jcr(2.0)</text>
</g>
<!-- org_liveSense_core&#45;&gt;javax_jcr -->
<g id="edge17" class="edge"><title>org_liveSense_core&#45;&gt;javax_jcr</title>
<path fill="none" stroke="#3182bd" d="M614.242,-371.488C551.305,-356.485 468.091,-336.344 465,-334 417.957,-298.338 390.853,-231.863 378.728,-194.771"/>
<polygon fill="#3182bd" stroke="#3182bd" points="382.038,-193.629 375.702,-185.138 375.36,-195.727 382.038,-193.629"/>
</g>
<!-- org_apache_sling_api -->
<g id="node14" class="node"><title>org_apache_sling_api</title>
<polygon fill="#9ecae1" stroke="black" points="907.5,-297 907.5,-333 1018.5,-333 1018.5,-297 907.5,-297"/>
<text text-anchor="middle" x="963" y="-322.1" font-family="Arial" font-size="8.00">Apache Sling API</text>
<polyline fill="none" stroke="black" points="907.5,-315 1018.5,-315 "/>
<text text-anchor="middle" x="963" y="-304.1" font-family="Arial" font-size="8.00">org.apache.sling.api(2.4.2)</text>
</g>
<!-- org_liveSense_core&#45;&gt;org_apache_sling_api -->
<g id="edge18" class="edge"><title>org_liveSense_core&#45;&gt;org_apache_sling_api</title>
<path fill="none" stroke="#3182bd" d="M750.119,-370.937C794.613,-359.455 853.03,-344.379 897.412,-332.926"/>
<polygon fill="#3182bd" stroke="#3182bd" points="898.421,-336.28 907.229,-330.393 896.672,-329.502 898.421,-336.28"/>
</g>
<!-- org_apache_sling_commons_osgi -->
<g id="node15" class="node"><title>org_apache_sling_commons_osgi</title>
<polygon fill="#9ecae1" stroke="black" points="617.5,-223 617.5,-259 770.5,-259 770.5,-223 617.5,-223"/>
<text text-anchor="middle" x="694" y="-248.1" font-family="Arial" font-size="8.00">Apache Sling Commons OSGi support</text>
<polyline fill="none" stroke="black" points="617.5,-241 770.5,-241 "/>
<text text-anchor="middle" x="694" y="-230.1" font-family="Arial" font-size="8.00">org.apache.sling.commons.osgi(2.2.0)</text>
</g>
<!-- org_liveSense_core&#45;&gt;org_apache_sling_commons_osgi -->
<g id="edge19" class="edge"><title>org_liveSense_core&#45;&gt;org_apache_sling_commons_osgi</title>
<path fill="none" stroke="#3182bd" d="M746.344,-370.906C778.076,-360.815 811.865,-347.42 821,-334 830.504,-320.039 830.317,-310.086 821,-296 811.074,-280.994 796.044,-270.145 779.758,-262.306"/>
<polygon fill="#3182bd" stroke="#3182bd" points="781.166,-259.101 770.605,-258.253 778.332,-265.502 781.166,-259.101"/>
</g>
<!-- org_apache_geronimo_specs_geronimo_servlet_3_0_spec -->
<g id="node16" class="node"><title>org_apache_geronimo_specs_geronimo_servlet_3_0_spec</title>
<polygon fill="#9ecae1" stroke="black" points="789,-223 789,-259 1019,-259 1019,-223 789,-223"/>
<text text-anchor="middle" x="904" y="-248.1" font-family="Arial" font-size="8.00">Servlet 3.0</text>
<polyline fill="none" stroke="black" points="789,-241 1019,-241 "/>
<text text-anchor="middle" x="904" y="-230.1" font-family="Arial" font-size="8.00">org.apache.geronimo.specs.geronimo&#45;servlet_3.0_spec(1.0)</text>
</g>
<!-- org_liveSense_core&#45;&gt;org_apache_geronimo_specs_geronimo_servlet_3_0_spec -->
<g id="edge20" class="edge"><title>org_liveSense_core&#45;&gt;org_apache_geronimo_specs_geronimo_servlet_3_0_spec</title>
<path fill="none" stroke="#3182bd" d="M744.851,-370.968C781.371,-359.955 823.635,-345.571 839,-334 862.061,-316.633 880.14,-288.703 891.314,-268.168"/>
<polygon fill="#3182bd" stroke="#3182bd" points="894.556,-269.521 896.096,-259.039 888.356,-266.273 894.556,-269.521"/>
</g>
<!-- org_apache_felix_scr -->
<g id="node17" class="node"><title>org_apache_felix_scr</title>
<polygon fill="#9ecae1" stroke="black" points="1075,-297 1075,-333 1213,-333 1213,-297 1075,-297"/>
<text text-anchor="middle" x="1144" y="-322.1" font-family="Arial" font-size="8.00">Apache Felix Declarative Services</text>
<polyline fill="none" stroke="black" points="1075,-315 1213,-315 "/>
<text text-anchor="middle" x="1144" y="-304.1" font-family="Arial" font-size="8.00">org.apache.felix.scr(1.6.2)</text>
</g>
<!-- org_liveSense_core&#45;&gt;org_apache_felix_scr -->
<g id="edge23" class="edge"><title>org_liveSense_core&#45;&gt;org_apache_felix_scr</title>
<path fill="none" stroke="#3182bd" d="M753.718,-371.763C756.85,-371.145 759.955,-370.553 763,-370 879.511,-348.826 909.808,-351.004 1027,-334 1039.2,-332.23 1052.1,-330.302 1064.71,-328.386"/>
<polygon fill="#3182bd" stroke="#3182bd" points="1065.38,-331.825 1074.74,-326.856 1064.32,-324.905 1065.38,-331.825"/>
</g>
<!-- org_apache_servicemix_bundles_guava -->
<g id="node18" class="node"><title>org_apache_servicemix_bundles_guava</title>
<polygon fill="#9ecae1" stroke="black" points="474.5,-297 474.5,-333 659.5,-333 659.5,-297 474.5,-297"/>
<text text-anchor="middle" x="567" y="-322.1" font-family="Arial" font-size="8.00">Apache ServiceMix :: Bundles :: guava</text>
<polyline fill="none" stroke="black" points="474.5,-315 659.5,-315 "/>
<text text-anchor="middle" x="567" y="-304.1" font-family="Arial" font-size="8.00">org.apache.servicemix.bundles.guava(11.0.0.1)</text>
</g>
<!-- org_liveSense_core&#45;&gt;org_apache_servicemix_bundles_guava -->
<g id="edge25" class="edge"><title>org_liveSense_core&#45;&gt;org_apache_servicemix_bundles_guava</title>
<path fill="none" stroke="#3182bd" d="M656.273,-370.937C640.505,-361.234 620.569,-348.966 603.538,-338.485"/>
<polygon fill="#3182bd" stroke="#3182bd" points="605.285,-335.45 594.934,-333.19 601.616,-341.412 605.285,-335.45"/>
</g>
<!-- net_entropysoft_transmorph -->
<g id="node19" class="node"><title>net_entropysoft_transmorph</title>
<polygon fill="#9ecae1" stroke="black" points="677.5,-297 677.5,-333 812.5,-333 812.5,-297 677.5,-297"/>
<text text-anchor="middle" x="745" y="-322.1" font-family="Arial" font-size="8.00">Transmorph</text>
<polyline fill="none" stroke="black" points="677.5,-315 812.5,-315 "/>
<text text-anchor="middle" x="745" y="-304.1" font-family="Arial" font-size="8.00">net.entropysoft.transmorph(3.1.1)</text>
</g>
<!-- org_liveSense_core&#45;&gt;net_entropysoft_transmorph -->
<g id="edge26" class="edge"><title>org_liveSense_core&#45;&gt;net_entropysoft_transmorph</title>
<path fill="none" stroke="#3182bd" d="M698.456,-370.937C705.943,-362.1 715.233,-351.135 723.539,-341.331"/>
<polygon fill="#3182bd" stroke="#3182bd" points="726.43,-343.333 730.224,-333.441 721.089,-338.808 726.43,-343.333"/>
</g>
<!-- org_apache_jackrabbit_jackrabbit_jcr_commons -->
<g id="node20" class="node"><title>org_apache_jackrabbit_jackrabbit_jcr_commons</title>
<polygon fill="#9ecae1" stroke="black" points="216.5,-297 216.5,-333 417.5,-333 417.5,-297 216.5,-297"/>
<text text-anchor="middle" x="317" y="-322.1" font-family="Arial" font-size="8.00">Jackrabbit JCR Commons</text>
<polyline fill="none" stroke="black" points="216.5,-315 417.5,-315 "/>
<text text-anchor="middle" x="317" y="-304.1" font-family="Arial" font-size="8.00">org.apache.jackrabbit.jackrabbit&#45;jcr&#45;commons(2.4.2)</text>
</g>
<!-- org_liveSense_core&#45;&gt;org_apache_jackrabbit_jackrabbit_jcr_commons -->
<g id="edge27" class="edge"><title>org_liveSense_core&#45;&gt;org_apache_jackrabbit_jackrabbit_jcr_commons</title>
<path fill="none" stroke="#3182bd" d="M614.245,-371.953C611.123,-371.283 608.03,-370.629 605,-370 544.862,-357.516 477.39,-344.796 422.878,-334.84"/>
<polygon fill="#3182bd" stroke="#3182bd" points="423.32,-331.363 412.855,-333.014 422.065,-338.25 423.32,-331.363"/>
</g>
<!-- org_apache_felix_eventadmin&#45;&gt;org_apache_felix_configadmin -->
<g id="edge29" class="edge"><title>org_apache_felix_eventadmin&#45;&gt;org_apache_felix_configadmin</title>
<path fill="none" stroke="#9ecae1" d="M1192.58,-111.176C1175.21,-120.395 1155.12,-132.967 1140,-148 1071.42,-216.207 1103.14,-274.349 1027,-334 1012.19,-345.605 973.336,-358.223 936.301,-368.341"/>
<polygon fill="#9ecae1" stroke="#9ecae1" points="935.184,-365.017 926.434,-370.992 937,-371.778 935.184,-365.017"/>
</g>
<!-- org_apache_felix_eventadmin&#45;&gt;org_ops4j_pax_logging_pax_logging_api -->
<g id="edge28" class="edge"><title>org_apache_felix_eventadmin&#45;&gt;org_ops4j_pax_logging_pax_logging_api</title>
<path fill="none" stroke="#9ecae1" d="M1300.03,-109.761C1351.04,-122.554 1412.64,-139.77 1422,-148 1489.85,-207.656 1440.67,-269.571 1504,-334 1517.7,-347.933 1535.66,-358.644 1553.03,-366.709"/>
<polygon fill="#9ecae1" stroke="#9ecae1" points="1552.03,-370.092 1562.59,-370.922 1554.85,-363.687 1552.03,-370.092"/>
</g>
<!-- org_apache_felix_metatype -->
<g id="node21" class="node"><title>org_apache_felix_metatype</title>
<polygon fill="#deebf7" stroke="black" points="1164.5,-1 1164.5,-37 1295.5,-37 1295.5,-1 1164.5,-1"/>
<text text-anchor="middle" x="1230" y="-26.1" font-family="Arial" font-size="8.00">Apache Felix Metatype Service</text>
<polyline fill="none" stroke="black" points="1164.5,-19 1295.5,-19 "/>
<text text-anchor="middle" x="1230" y="-8.1" font-family="Arial" font-size="8.00">org.apache.felix.metatype(1.0.6)</text>
</g>
<!-- org_apache_felix_eventadmin&#45;&gt;org_apache_felix_metatype -->
<g id="edge30" class="edge"><title>org_apache_felix_eventadmin&#45;&gt;org_apache_felix_metatype</title>
<path fill="none" stroke="#9ecae1" d="M1230,-74.937C1230,-66.8072 1230,-56.8761 1230,-47.7047"/>
<polygon fill="#9ecae1" stroke="#9ecae1" points="1233.5,-47.4406 1230,-37.4407 1226.5,-47.4407 1233.5,-47.4406"/>
</g>
<!-- org_apache_sling_api&#45;&gt;org_ops4j_pax_logging_pax_logging_api -->
<g id="edge31" class="edge"><title>org_apache_sling_api&#45;&gt;org_ops4j_pax_logging_pax_logging_api</title>
<path fill="none" stroke="#9ecae1" d="M1018.72,-326.714C1034,-329.386 1050.6,-332.043 1066,-334 1261.83,-358.89 1315.41,-343.975 1515.51,-370.026"/>
<polygon fill="#9ecae1" stroke="#9ecae1" points="1515.09,-373.501 1525.46,-371.339 1516,-366.561 1515.09,-373.501"/>
</g>
<!-- org_apache_sling_api&#45;&gt;org_apache_geronimo_specs_geronimo_servlet_3_0_spec -->
<g id="edge32" class="edge"><title>org_apache_sling_api&#45;&gt;org_apache_geronimo_specs_geronimo_servlet_3_0_spec</title>
<path fill="none" stroke="#9ecae1" d="M949.018,-296.937C941.777,-288.1 932.791,-277.135 924.757,-267.331"/>
<polygon fill="#9ecae1" stroke="#9ecae1" points="927.337,-264.957 918.292,-259.441 921.923,-269.394 927.337,-264.957"/>
</g>
<!-- org_apache_sling_commons_osgi&#45;&gt;org_apache_felix_eventadmin -->
<g id="edge33" class="edge"><title>org_apache_sling_commons_osgi&#45;&gt;org_apache_felix_eventadmin</title>
<path fill="none" stroke="#9ecae1" d="M756.535,-222.966C856.455,-195.749 1051.61,-142.592 1157.49,-113.751"/>
<polygon fill="#9ecae1" stroke="#9ecae1" points="1158.72,-117.043 1167.45,-111.038 1156.88,-110.289 1158.72,-117.043"/>
</g>
<!-- org_apache_felix_scr&#45;&gt;org_apache_felix_configadmin -->
<g id="edge37" class="edge"><title>org_apache_felix_scr&#45;&gt;org_apache_felix_configadmin</title>
<path fill="none" stroke="#9ecae1" d="M1075.75,-333.003C1033.05,-343.642 977.889,-357.384 933.392,-368.47"/>
<polygon fill="#9ecae1" stroke="#9ecae1" points="932.346,-365.123 923.489,-370.937 934.039,-371.916 932.346,-365.123"/>
</g>
<!-- org_apache_felix_scr&#45;&gt;org_ops4j_pax_logging_pax_logging_api -->
<g id="edge39" class="edge"><title>org_apache_felix_scr&#45;&gt;org_ops4j_pax_logging_pax_logging_api</title>
<path fill="none" stroke="#9ecae1" d="M1213.25,-332.377C1216.2,-332.95 1219.13,-333.494 1222,-334 1348.48,-356.275 1384.18,-350.182 1515.4,-369.972"/>
<polygon fill="#9ecae1" stroke="#9ecae1" points="1515.02,-373.455 1525.44,-371.508 1516.08,-366.535 1515.02,-373.455"/>
</g>
<!-- org_apache_felix_scr&#45;&gt;org_apache_felix_metatype -->
<g id="edge38" class="edge"><title>org_apache_felix_scr&#45;&gt;org_apache_felix_metatype</title>
<path fill="none" stroke="#9ecae1" d="M1139.08,-296.93C1128.11,-255.146 1105.98,-145.898 1151,-74 1159.02,-61.1862 1171.32,-50.6589 1183.85,-42.4116"/>
<polygon fill="#9ecae1" stroke="#9ecae1" points="1185.84,-45.2983 1192.5,-37.0662 1182.16,-39.3423 1185.84,-45.2983"/>
</g>
<!-- org_apache_karaf_shell_console -->
<g id="node23" class="node"><title>org_apache_karaf_shell_console</title>
<polygon fill="#deebf7" stroke="black" points="1259,-223 1259,-259 1425,-259 1425,-223 1259,-223"/>
<text text-anchor="middle" x="1342" y="-248.1" font-family="Arial" font-size="8.00">Apache Karaf :: Shell :: Console</text>
<polyline fill="none" stroke="black" points="1259,-241 1425,-241 "/>
<text text-anchor="middle" x="1342" y="-230.1" font-family="Arial" font-size="8.00">org.apache.karaf.shell.console(3.0.0.RC1)</text>
</g>
<!-- org_apache_felix_scr&#45;&gt;org_apache_karaf_shell_console -->
<g id="edge36" class="edge"><title>org_apache_felix_scr&#45;&gt;org_apache_karaf_shell_console</title>
<path fill="none" stroke="#9ecae1" d="M1190.92,-296.937C1219.3,-286.618 1255.66,-273.397 1285.59,-262.511"/>
<polygon fill="#9ecae1" stroke="#9ecae1" points="1286.87,-265.772 1295.07,-259.065 1284.48,-259.193 1286.87,-265.772"/>
</g>
<!-- org_apache_jackrabbit_jackrabbit_jcr_commons&#45;&gt;javax_jcr -->
<g id="edge40" class="edge"><title>org_apache_jackrabbit_jackrabbit_jcr_commons&#45;&gt;javax_jcr</title>
<path fill="none" stroke="#9ecae1" d="M330.429,-296.922C337.822,-286.73 346.572,-273.23 352,-260 360.579,-239.091 365.438,-213.861 368.09,-195.115"/>
<polygon fill="#9ecae1" stroke="#9ecae1" points="371.564,-195.539 369.377,-185.173 364.622,-194.641 371.564,-195.539"/>
</g>
<!-- org_apache_jackrabbit_jackrabbit_api -->
<g id="node24" class="node"><title>org_apache_jackrabbit_jackrabbit_api</title>
<polygon fill="#deebf7" stroke="black" points="177,-223 177,-259 343,-259 343,-223 177,-223"/>
<text text-anchor="middle" x="260" y="-248.1" font-family="Arial" font-size="8.00">Apache Jackrabbit API</text>
<polyline fill="none" stroke="black" points="177,-241 343,-241 "/>
<text text-anchor="middle" x="260" y="-230.1" font-family="Arial" font-size="8.00">org.apache.jackrabbit.jackrabbit&#45;api(2.4.2)</text>
</g>
<!-- org_apache_jackrabbit_jackrabbit_jcr_commons&#45;&gt;org_apache_jackrabbit_jackrabbit_api -->
<g id="edge41" class="edge"><title>org_apache_jackrabbit_jackrabbit_jcr_commons&#45;&gt;org_apache_jackrabbit_jackrabbit_api</title>
<path fill="none" stroke="#9ecae1" d="M303.492,-296.937C296.496,-288.1 287.816,-277.135 280.054,-267.331"/>
<polygon fill="#9ecae1" stroke="#9ecae1" points="282.758,-265.109 273.807,-259.441 277.27,-269.454 282.758,-265.109"/>
</g>
<!-- org_apache_felix_metatype&#45;&gt;org_ops4j_pax_logging_pax_logging_api -->
<g id="edge42" class="edge"><title>org_apache_felix_metatype&#45;&gt;org_ops4j_pax_logging_pax_logging_api</title>
<path fill="none" stroke="#deebf7" d="M1295.62,-27.9296C1357.75,-36.6049 1445.38,-52.2338 1472,-74 1484.08,-83.8787 1569.88,-287.227 1600.87,-361.305"/>
<polygon fill="#deebf7" stroke="#deebf7" points="1597.78,-362.989 1604.86,-370.867 1604.24,-360.29 1597.78,-362.989"/>
</g>
<!-- org_apache_karaf_shell_console&#45;&gt;org_ops4j_pax_logging_pax_logging_api -->
<g id="edge48" class="edge"><title>org_apache_karaf_shell_console&#45;&gt;org_ops4j_pax_logging_pax_logging_api</title>
<path fill="none" stroke="#deebf7" d="M1359.35,-259.278C1384.71,-284.41 1429.89,-328.654 1439,-334 1464.12,-348.745 1493.7,-359.888 1521.23,-368.106"/>
<polygon fill="#deebf7" stroke="#deebf7" points="1520.29,-371.477 1530.87,-370.891 1522.23,-364.753 1520.29,-371.477"/>
</g>
<!-- org_apache_karaf_shell_console&#45;&gt;org_apache_felix_eventadmin -->
<g id="edge45" class="edge"><title>org_apache_karaf_shell_console&#45;&gt;org_apache_felix_eventadmin</title>
<path fill="none" stroke="#deebf7" d="M1364.43,-222.763C1386.33,-203.797 1413.96,-172.725 1396,-148 1390.09,-139.856 1345.61,-125.622 1304.18,-113.812"/>
<polygon fill="#deebf7" stroke="#deebf7" points="1304.87,-110.371 1294.3,-111.023 1302.97,-117.108 1304.87,-110.371"/>
</g>
<!-- org_apache_aries_blueprint_api -->
<g id="node25" class="node"><title>org_apache_aries_blueprint_api</title>
<polygon fill="#bdbdbd" stroke="black" points="1318.5,-75 1318.5,-111 1463.5,-111 1463.5,-75 1318.5,-75"/>
<text text-anchor="middle" x="1391" y="-100.1" font-family="Arial" font-size="8.00">Apache Aries Blueprint API</text>
<polyline fill="none" stroke="black" points="1318.5,-93 1463.5,-93 "/>
<text text-anchor="middle" x="1391" y="-82.1" font-family="Arial" font-size="8.00">org.apache.aries.blueprint.api(1.0.0)</text>
</g>
<!-- org_apache_karaf_shell_console&#45;&gt;org_apache_aries_blueprint_api -->
<g id="edge43" class="edge"><title>org_apache_karaf_shell_console&#45;&gt;org_apache_aries_blueprint_api</title>
<path fill="none" stroke="#deebf7" d="M1258.76,-228.82C1192.68,-216.426 1116.76,-192.088 1152,-148 1152.64,-147.198 1239.45,-127.719 1308.26,-112.385"/>
<polygon fill="#deebf7" stroke="#deebf7" points="1309.27,-115.746 1318.27,-110.155 1307.74,-108.913 1309.27,-115.746"/>
</g>
<!-- jline -->
<g id="node26" class="node"><title>jline</title>
<polygon fill="#bdbdbd" stroke="black" points="1333,-149 1333,-185 1387,-185 1387,-149 1333,-149"/>
<text text-anchor="middle" x="1360" y="-174.1" font-family="Arial" font-size="8.00">JLine</text>
<polyline fill="none" stroke="black" points="1333,-167 1387,-167 "/>
<text text-anchor="middle" x="1360" y="-156.1" font-family="Arial" font-size="8.00">jline(2.9.0)</text>
</g>
<!-- org_apache_karaf_shell_console&#45;&gt;jline -->
<g id="edge44" class="edge"><title>org_apache_karaf_shell_console&#45;&gt;jline</title>
<path fill="none" stroke="#deebf7" d="M1346.27,-222.937C1348.32,-214.719 1350.83,-204.66 1353.15,-195.406"/>
<polygon fill="#deebf7" stroke="#deebf7" points="1356.61,-195.991 1355.64,-185.441 1349.82,-194.293 1356.61,-195.991"/>
</g>
<!-- org_apache_aries_blueprint_core -->
<g id="node27" class="node"><title>org_apache_aries_blueprint_core</title>
<polygon fill="#bdbdbd" stroke="black" points="1537,-149 1537,-185 1687,-185 1687,-149 1537,-149"/>
<text text-anchor="middle" x="1612" y="-174.1" font-family="Arial" font-size="8.00">Apache Aries Blueprint Core</text>
<polyline fill="none" stroke="black" points="1537,-167 1687,-167 "/>
<text text-anchor="middle" x="1612" y="-156.1" font-family="Arial" font-size="8.00">org.apache.aries.blueprint.core(1.1.0)</text>
</g>
<!-- org_apache_karaf_shell_console&#45;&gt;org_apache_aries_blueprint_core -->
<g id="edge46" class="edge"><title>org_apache_karaf_shell_console&#45;&gt;org_apache_aries_blueprint_core</title>
<path fill="none" stroke="#deebf7" d="M1405.99,-222.937C1445.69,-212.35 1496.84,-198.708 1538.25,-187.667"/>
<polygon fill="#deebf7" stroke="#deebf7" points="1539.25,-191.024 1548.01,-185.065 1537.44,-184.26 1539.25,-191.024"/>
</g>
<!-- org_apache_sshd_core -->
<g id="node28" class="node"><title>org_apache_sshd_core</title>
<polygon fill="#bdbdbd" stroke="black" points="1782.5,-149 1782.5,-185 1899.5,-185 1899.5,-149 1782.5,-149"/>
<text text-anchor="middle" x="1841" y="-174.1" font-family="Arial" font-size="8.00">Apache Mina SSHD :: Core</text>
<polyline fill="none" stroke="black" points="1782.5,-167 1899.5,-167 "/>
<text text-anchor="middle" x="1841" y="-156.1" font-family="Arial" font-size="8.00">org.apache.sshd.core(0.8.0)</text>
</g>
<!-- org_apache_karaf_shell_console&#45;&gt;org_apache_sshd_core -->
<g id="edge47" class="edge"><title>org_apache_karaf_shell_console&#45;&gt;org_apache_sshd_core</title>
<path fill="none" stroke="#deebf7" d="M1425.24,-227.989C1522.43,-213.966 1681.39,-191.03 1772,-177.956"/>
<polygon fill="#deebf7" stroke="#deebf7" points="1772.77,-181.381 1782.17,-176.489 1771.77,-174.453 1772.77,-181.381"/>
</g>
<!-- org_apache_karaf_jaas_boot -->
<g id="node29" class="node"><title>org_apache_karaf_jaas_boot</title>
<polygon fill="#bdbdbd" stroke="black" points="1161.5,-149 1161.5,-185 1314.5,-185 1314.5,-149 1161.5,-149"/>
<text text-anchor="middle" x="1238" y="-174.1" font-family="Arial" font-size="8.00">Apache Karaf :: JAAS :: Boot</text>
<polyline fill="none" stroke="black" points="1161.5,-167 1314.5,-167 "/>
<text text-anchor="middle" x="1238" y="-156.1" font-family="Arial" font-size="8.00">org.apache.karaf.jaas.boot(3.0.0.RC1)</text>
</g>
<!-- org_apache_karaf_shell_console&#45;&gt;org_apache_karaf_jaas_boot -->
<g id="edge49" class="edge"><title>org_apache_karaf_shell_console&#45;&gt;org_apache_karaf_jaas_boot</title>
<path fill="none" stroke="#deebf7" d="M1317.35,-222.937C1303.6,-213.412 1286.27,-201.415 1271.31,-191.063"/>
<polygon fill="#deebf7" stroke="#deebf7" points="1273.04,-188.004 1262.83,-185.19 1269.06,-193.76 1273.04,-188.004"/>
</g>
<!-- org_apache_jackrabbit_jackrabbit_api&#45;&gt;javax_jcr -->
<g id="edge50" class="edge"><title>org_apache_jackrabbit_jackrabbit_api&#45;&gt;javax_jcr</title>
<path fill="none" stroke="#deebf7" d="M286.305,-222.937C301.127,-213.323 319.831,-201.19 335.891,-190.774"/>
<polygon fill="#deebf7" stroke="#deebf7" points="338.014,-193.568 344.499,-185.19 334.204,-187.696 338.014,-193.568"/>
</g>
<!-- org_apache_jackrabbit_jackrabbit_api&#45;&gt;org_apache_geronimo_specs_geronimo_jta_1_1_spec -->
<g id="edge51" class="edge"><title>org_apache_jackrabbit_jackrabbit_api&#45;&gt;org_apache_geronimo_specs_geronimo_jta_1_1_spec</title>
<path fill="none" stroke="#deebf7" d="M224.689,-222.937C203.982,-212.931 177.627,-200.196 155.507,-189.507"/>
<polygon fill="#deebf7" stroke="#deebf7" points="156.842,-186.265 146.315,-185.065 153.796,-192.567 156.842,-186.265"/>
</g>
<!-- org_apache_aries_blueprint_core&#45;&gt;org_ops4j_pax_logging_pax_logging_api -->
<g id="edge55" class="edge"><title>org_apache_aries_blueprint_core&#45;&gt;org_ops4j_pax_logging_pax_logging_api</title>
<path fill="none" stroke="#bdbdbd" d="M1612,-185.183C1612,-223.181 1612,-314.609 1612,-360.602"/>
<polygon fill="#bdbdbd" stroke="#bdbdbd" points="1608.5,-360.737 1612,-370.737 1615.5,-360.737 1608.5,-360.737"/>
</g>
<!-- org_apache_aries_blueprint_core&#45;&gt;org_apache_felix_eventadmin -->
<g id="edge54" class="edge"><title>org_apache_aries_blueprint_core&#45;&gt;org_apache_felix_eventadmin</title>
<path fill="none" stroke="#bdbdbd" d="M1536.79,-153.621C1477.7,-143.659 1393.11,-128.878 1310.03,-112.165"/>
<polygon fill="#bdbdbd" stroke="#bdbdbd" points="1310.67,-108.723 1300.17,-110.171 1309.28,-115.584 1310.67,-108.723"/>
</g>
<!-- org_apache_aries_blueprint_core&#45;&gt;org_apache_aries_blueprint_api -->
<g id="edge53" class="edge"><title>org_apache_aries_blueprint_core&#45;&gt;org_apache_aries_blueprint_api</title>
<path fill="none" stroke="#bdbdbd" d="M1559.63,-148.937C1527.68,-138.529 1486.67,-125.168 1453.09,-114.229"/>
<polygon fill="#bdbdbd" stroke="#bdbdbd" points="1453.97,-110.835 1443.38,-111.065 1451.8,-117.491 1453.97,-110.835"/>
</g>
<!-- org_apache_aries_proxy_api -->
<g id="node31" class="node"><title>org_apache_aries_proxy_api</title>
<polygon fill="#bdbdbd" stroke="black" points="1718,-75 1718,-111 1852,-111 1852,-75 1718,-75"/>
<text text-anchor="middle" x="1785" y="-100.1" font-family="Arial" font-size="8.00">Apache Aries Proxy API</text>
<polyline fill="none" stroke="black" points="1718,-93 1852,-93 "/>
<text text-anchor="middle" x="1785" y="-82.1" font-family="Arial" font-size="8.00">org.apache.aries.proxy.api(1.0.0)</text>
</g>
<!-- org_apache_aries_blueprint_core&#45;&gt;org_apache_aries_proxy_api -->
<g id="edge52" class="edge"><title>org_apache_aries_blueprint_core&#45;&gt;org_apache_aries_proxy_api</title>
<path fill="none" stroke="#bdbdbd" d="M1653,-148.937C1677.47,-138.752 1708.74,-125.74 1734.69,-114.936"/>
<polygon fill="#bdbdbd" stroke="#bdbdbd" points="1736.11,-118.139 1744,-111.065 1733.42,-111.676 1736.11,-118.139"/>
</g>
<!-- org_apache_aries_util -->
<g id="node32" class="node"><title>org_apache_aries_util</title>
<polygon fill="#bdbdbd" stroke="black" points="1706,-1 1706,-37 1818,-37 1818,-1 1706,-1"/>
<text text-anchor="middle" x="1762" y="-26.1" font-family="Arial" font-size="8.00">Apache Aries Util</text>
<polyline fill="none" stroke="black" points="1706,-19 1818,-19 "/>
<text text-anchor="middle" x="1762" y="-8.1" font-family="Arial" font-size="8.00">org.apache.aries.util(1.1.0)</text>
</g>
<!-- org_apache_aries_blueprint_core&#45;&gt;org_apache_aries_util -->
<g id="edge56" class="edge"><title>org_apache_aries_blueprint_core&#45;&gt;org_apache_aries_util</title>
<path fill="none" stroke="#bdbdbd" d="M1582.35,-148.835C1569.57,-139.692 1555.98,-127.182 1549,-112 1541.94,-96.6562 1538.63,-87.3291 1549,-74 1567,-50.8642 1640.15,-36.0453 1695.75,-27.8955"/>
<polygon fill="#bdbdbd" stroke="#bdbdbd" points="1696.5,-31.3238 1705.91,-26.4509 1695.52,-24.3935 1696.5,-31.3238"/>
</g>
<!-- org_apache_aries_quiesce_api -->
<g id="node33" class="node"><title>org_apache_aries_quiesce_api</title>
<polygon fill="#bdbdbd" stroke="black" points="1558,-75 1558,-111 1700,-111 1700,-75 1558,-75"/>
<text text-anchor="middle" x="1629" y="-100.1" font-family="Arial" font-size="8.00">Apache Aries Quiesce API</text>
<polyline fill="none" stroke="black" points="1558,-93 1700,-93 "/>
<text text-anchor="middle" x="1629" y="-82.1" font-family="Arial" font-size="8.00">org.apache.aries.quiesce.api(1.0.0)</text>
</g>
<!-- org_apache_aries_blueprint_core&#45;&gt;org_apache_aries_quiesce_api -->
<g id="edge57" class="edge"><title>org_apache_aries_blueprint_core&#45;&gt;org_apache_aries_quiesce_api</title>
<path fill="none" stroke="#bdbdbd" d="M1616.03,-148.937C1617.97,-140.719 1620.34,-130.66 1622.53,-121.406"/>
<polygon fill="#bdbdbd" stroke="#bdbdbd" points="1625.99,-121.977 1624.88,-111.441 1619.18,-120.369 1625.99,-121.977"/>
</g>
<!-- org_apache_sshd_core&#45;&gt;org_ops4j_pax_logging_pax_logging_api -->
<g id="edge58" class="edge"><title>org_apache_sshd_core&#45;&gt;org_ops4j_pax_logging_pax_logging_api</title>
<path fill="none" stroke="#bdbdbd" d="M1823.11,-185.183C1782.64,-224.063 1683.95,-318.881 1637.26,-363.73"/>
<polygon fill="#bdbdbd" stroke="#bdbdbd" points="1634.76,-361.285 1629.97,-370.737 1639.61,-366.333 1634.76,-361.285"/>
</g>
<!-- org_apache_mina_core -->
<g id="node34" class="node"><title>org_apache_mina_core</title>
<polygon fill="#bdbdbd" stroke="black" points="1949.5,-75 1949.5,-111 2066.5,-111 2066.5,-75 1949.5,-75"/>
<text text-anchor="middle" x="2008" y="-100.1" font-family="Arial" font-size="8.00">Apache MINA Core</text>
<polyline fill="none" stroke="black" points="1949.5,-93 2066.5,-93 "/>
<text text-anchor="middle" x="2008" y="-82.1" font-family="Arial" font-size="8.00">org.apache.mina.core(2.0.7)</text>
</g>
<!-- org_apache_sshd_core&#45;&gt;org_apache_mina_core -->
<g id="edge59" class="edge"><title>org_apache_sshd_core&#45;&gt;org_apache_mina_core</title>
<path fill="none" stroke="#bdbdbd" d="M1880.58,-148.937C1904.1,-138.797 1934.12,-125.854 1959.11,-115.078"/>
<polygon fill="#bdbdbd" stroke="#bdbdbd" points="1960.62,-118.238 1968.42,-111.065 1957.85,-111.81 1960.62,-118.238"/>
</g>
<!-- bcprov -->
<g id="node35" class="node"><title>bcprov</title>
<polygon fill="#bdbdbd" stroke="black" points="1870.5,-75 1870.5,-111 1931.5,-111 1931.5,-75 1870.5,-75"/>
<text text-anchor="middle" x="1901" y="-100.1" font-family="Arial" font-size="8.00">bcprov</text>
<polyline fill="none" stroke="black" points="1870.5,-93 1931.5,-93 "/>
<text text-anchor="middle" x="1901" y="-82.1" font-family="Arial" font-size="8.00">bcprov(1.46)</text>
</g>
<!-- org_apache_sshd_core&#45;&gt;bcprov -->
<g id="edge60" class="edge"><title>org_apache_sshd_core&#45;&gt;bcprov</title>
<path fill="none" stroke="#bdbdbd" d="M1855.22,-148.937C1862.58,-140.1 1871.72,-129.135 1879.89,-119.331"/>
<polygon fill="#bdbdbd" stroke="#bdbdbd" points="1882.75,-121.364 1886.47,-111.441 1877.38,-116.882 1882.75,-121.364"/>
</g>
<!-- org_apache_aries_proxy_api&#45;&gt;org_apache_aries_util -->
<g id="edge61" class="edge"><title>org_apache_aries_proxy_api&#45;&gt;org_apache_aries_util</title>
<path fill="none" stroke="#bdbdbd" d="M1779.55,-74.937C1776.9,-66.6305 1773.64,-56.4435 1770.66,-47.1077"/>
<polygon fill="#bdbdbd" stroke="#bdbdbd" points="1773.95,-45.9014 1767.57,-37.4407 1767.28,-48.0315 1773.95,-45.9014"/>
</g>
<!-- org_apache_aries_util&#45;&gt;org_ops4j_pax_logging_pax_logging_api -->
<g id="edge64" class="edge"><title>org_apache_aries_util&#45;&gt;org_ops4j_pax_logging_pax_logging_api</title>
<path fill="none" stroke="#bdbdbd" d="M1818.26,-36.0478C1821.21,-36.7418 1824.14,-37.3979 1827,-38 1881.5,-49.4538 2034.27,-36.0223 2075,-74 2105.6,-102.536 2095,-124.156 2095,-166 2095,-242 2095,-242 2095,-242 2095,-282.074 1848.23,-339.453 1707.46,-368.924"/>
<polygon fill="#bdbdbd" stroke="#bdbdbd" points="1706.59,-365.53 1697.52,-370.997 1708.02,-372.383 1706.59,-365.53"/>
</g>
<!-- org_apache_mina_core&#45;&gt;org_ops4j_pax_logging_pax_logging_api -->
<g id="edge62" class="edge"><title>org_apache_mina_core&#45;&gt;org_ops4j_pax_logging_pax_logging_api</title>
<path fill="none" stroke="#bdbdbd" d="M1990.51,-111.28C1970.98,-130.283 1938.16,-161.388 1908,-186 1820.94,-257.055 1796.97,-272.376 1703,-334 1686.28,-344.965 1667.33,-356.368 1651.06,-365.854"/>
<polygon fill="#bdbdbd" stroke="#bdbdbd" points="1649.23,-362.869 1642.34,-370.912 1652.74,-368.926 1649.23,-362.869"/>
</g>
<!-- org_apache_servicemix_bundles_junit -->
<g id="node36" class="node"><title>org_apache_servicemix_bundles_junit</title>
<polygon fill="#bdbdbd" stroke="black" points="1836.5,-1 1836.5,-37 2009.5,-37 2009.5,-1 1836.5,-1"/>
<text text-anchor="middle" x="1923" y="-26.1" font-family="Arial" font-size="8.00">Apache ServiceMix :: Bundles :: junit</text>
<polyline fill="none" stroke="black" points="1836.5,-19 2009.5,-19 "/>
<text text-anchor="middle" x="1923" y="-8.1" font-family="Arial" font-size="8.00">org.apache.servicemix.bundles.junit(3.8.2.4)</text>
</g>
<!-- bcprov&#45;&gt;org_apache_servicemix_bundles_junit -->
<g id="edge63" class="edge"><title>bcprov&#45;&gt;org_apache_servicemix_bundles_junit</title>
<path fill="none" stroke="#bdbdbd" d="M1906.21,-74.937C1908.75,-66.6305 1911.86,-56.4435 1914.72,-47.1077"/>
<polygon fill="#bdbdbd" stroke="#bdbdbd" points="1918.1,-48.027 1917.67,-37.4407 1911.4,-45.9814 1918.1,-48.027"/>
</g>
</g>
</svg>
